<svg width="256px" height="256px" viewBox="-4.8 -4.8 57.60 57.60" xmlns="http://www.w3.org/2000/svg" fill="#000000" transform="rotate(0)matrix(1, 0, 0, 1, 0, 0)">
	<g id="SVGRepo_bgCarrier" stroke-width="0">
		<path transform="translate(-4.8, -4.8), scale(1.7999999999999998)" d="M16,30.049578924608582C18.03973502465429,29.557482141506405,18.34289285399253,26.414681318267604,20.215237752633747,25.46757900316476C21.957931264282674,24.586059225160614,24.53237564529632,26.294608078877676,25.99087155530023,24.995821154452578C27.383442434108403,23.75574030381353,26.608648847457406,21.37959592868374,26.8779420718062,19.534457633610423C27.1105454840494,17.940709909238546,27.142944798252685,16.368409370887957,27.479886648596203,14.793415292862647C27.95235639207741,12.58491240944112,30.023535793193847,10.466827386900933,29.27354138619853,8.336517307578644C28.574694656517153,6.3514888616919105,26.01763970692471,5.62162614027891,24.018952652324295,4.962858548226476C22.21638060408828,4.368730495520964,20.263083922266347,5.063972514472184,18.391317742034023,4.749734549496724C16.60902629617425,4.45051788298412,15.075329988377554,3.2500880480080343,13.270425620287064,3.1583621871415293C11.271152899300777,3.0567584597188953,8.628411431320837,2.595374923696479,7.421150671100666,4.192226885256693C6.037232571473503,6.0227447028202254,7.699145066902336,8.734178833604531,7.341278667542973,11.000884907867974C7.11850663112978,12.411910723696941,6.4797665296041735,13.705985678384716,5.727406859431744,14.920306953765131C4.421401415295682,17.028221903822995,0.41228033649954443,18.459925483696654,1.2808328386792418,20.782547322857706C2.174381554748305,23.172012274127795,6.56036161140498,21.1383385524149,8.617064327917042,22.647625137934277C10.120851110025841,23.751161006048083,9.453004611341528,26.425606399068844,10.770239492420806,27.746234418734822C12.130292363467651,29.10979072561,14.127829354823632,30.501249921465522,16,30.049578924608582" fill="#ec7e7e" strokewidth="0">
		</path>
	</g>
	<g id="SVGRepo_tracerCarrier" stroke-linecap="round" stroke-linejoin="round">
	</g>
	<g id="SVGRepo_iconCarrier">
		<defs>
			<style>
				.a{fill:none;stroke:#000000;stroke-linecap:round;stroke-linejoin:round;stroke-width:1.75px}
			</style>
		</defs>
		<path class="a" d="M40.5,42.5H7.5a2.0059,2.0059,0,0,1-2-2V7.5a2.0059,2.0059,0,0,1,2-2h33a2.0059,2.0059,0,0,1,2,2v33A2.0059,2.0059,0,0,1,40.5,42.5Z">
		</path>
		<line class="a" x1="19.1434" y1="36.0962" x2="26.1198" y2="36.0962">
		</line>
		<line class="a" x1="19.1434" y1="25.3633" x2="26.1198" y2="25.3633">
		</line>
		<line class="a" x1="19.1434" y1="30.7297" x2="23.692" y2="30.7297">
		</line>
		<line class="a" x1="19.1434" y1="25.3633" x2="19.1434" y2="36.0962">
		</line>
		<polyline class="a" points="28.803 22.625 28.803 11.904 34.169 22.637 39.536 11.92 39.536 22.637">
		</polyline>
		<line class="a" x1="28.803" y1="25.3633" x2="39.5359" y2="36.0962">
		</line>
		<line class="a" x1="39.5359" y1="25.3633" x2="28.803" y2="36.0962">
		</line>
		<line class="a" x1="16.757" y1="22.6049" x2="21.5375" y2="11.9038">
		</line>
		<line class="a" x1="26.1198" y1="22.6368" x2="21.5375" y2="11.9038">
		</line>
		<line class="a" x1="24.5869" y1="19.0464" x2="18.3467" y2="19.0464">
		</line>
	</g>
</svg>
